PathFileType	4	(X/Y/Z)	Patient4_TMGait_0pt7_01_left_11.trc.trc
DataRate	CameraRate	NumFrames	NumMarkers	Units	OrigDataRate	OrigDataStartFrame	OrigNumFrames
88.050314465409	88.050314465409	5	33	mm	88.050314465409	71	       141
Frame#	Time	Sacral			L.Shoulder			Chest			R.Shoulder			Neck			R.ASIS			L.ASIS			R.Thigh.Superior			R.Thigh.Lateral			R.Thigh.Inferior			R.Patella			L.Thigh.Superior			L.Thigh.Lateral			L.Thigh.Inferior			L.Patella			L.Shank.Superior			L.Shank.Lateral			L.Shank.Inferior			R.Shank.Superior			R.Shank.Lateral			R.Shank.Inferior			R.Heel			R.Midfoot.Superior			R.Midfoot.Lateral			R.Toe			L.Heel			L.Midfoot.Lateral			L.Midfoot.Superior			L.Toe			L.Elbow			L.Wrist			R.Elbow			R.Wrist			
		X1	Y1	Z1	X2	Y2	Z2	X3	Y3	Z3	X4	Y4	Z4	X5	Y5	Z5	X6	Y6	Z6	X7	Y7	Z7	X8	Y8	Z8	X9	Y9	Z9	X10	Y10	Z10	X11	Y11	Z11	X12	Y12	Z12	X13	Y13	Z13	X14	Y14	Z14	X15	Y15	Z15	X16	Y16	Z16	X17	Y17	Z17	X18	Y18	Z18	X19	Y19	Z19	X20	Y20	Z20	X21	Y21	Z21	X22	Y22	Z22	X23	Y23	Z23	X24	Y24	Z24	X25	Y25	Z25	X26	Y26	Z26	X27	Y27	Z27	X28	Y28	Z28	X29	Y29	Z29	X30	Y30	Z30	X31	Y31	Z31	X32	Y32	Z32	X33	Y33	Z33	

71	13.445000000000	803.664946712256	994.413281508179	427.747552958280	1009.378749175289	1417.814687849218	252.474738059987	1098.159345685129	1343.011267784424	419.512113477622	1011.407721511139	1430.293289438897	585.843915065554	1011.344999363636	1480.909416968156	403.777087317693	1025.622094909691	932.440683237660	557.540863155885	1025.689367947974	959.352184783328	279.794578343895	1104.213314909472	762.186647563133	534.016938271868	1061.560537167363	642.955844011876	610.285513021965	1150.008530609599	606.129520721969	529.149484652243	1186.268823139980	529.492020597232	547.663505257040	1031.348169913986	732.946723542982	309.629603209239	917.614173543700	637.133810026748	242.720751804027	974.419057815211	544.436617836212	309.813072300861	959.924247518067	478.467356583774	319.005178335560	930.117192520091	412.177322562690	310.143608344468	834.153565052311	303.109904817559	259.082049639526	875.523402352470	190.467079012132	334.860425609546	1179.977844488158	441.384528777967	561.720588866675	1139.742435391898	324.616691296146	628.280113523441	1218.186565833407	245.064952709366	578.964347022199	1146.583147383439	48.525470063970	553.395291440313	1300.910765914195	138.222871706088	596.104546968258	1227.738942703321	57.524858332375	629.102836588728	1426.512141433648	114.097250329286	628.731547734351	741.211636392876	38.272899935584	380.795886055262	812.494714784670	34.284422385685	298.091778251641	895.747761021548	95.654370448272	322.513351388273	1023.820489176925	45.249777707050	290.926345445662	1088.162784253949	1095.190357113117	114.790067926894	1333.143564589285	1089.253167125263	184.487020304128	850.726352293838	1135.999922622055	717.209053735717	811.431328244905	878.142469212571	747.940989677723	
72	13.456357142857	805.896486761322	992.514380223072	429.646394507073	1009.514334476375	1416.467679624047	253.860569836482	1098.985593656698	1342.021604762502	420.585010087070	1012.358462123008	1429.210384578611	587.114621159412	1011.975600480963	1479.598478608993	405.047890242037	1028.226671861196	930.823974375866	558.900438963380	1027.581608191100	958.041897918475	280.822575499015	1105.663261217346	759.017452912966	535.738069749794	1060.658396814733	639.606283678683	610.595443779934	1149.252442840964	602.704649092509	529.982033328741	1183.669215896667	525.948432038548	547.774073422915	1032.097795879530	731.255173037747	310.514464034628	917.177181666782	636.236825275769	244.070499394131	973.578326029979	542.925202916761	310.746399011548	958.554418823765	476.537880245613	319.899727134523	927.597504192589	410.618547220153	311.037634068567	829.700974207418	303.228866472807	259.830924526715	869.268111662211	189.695616780216	335.149717834070	1177.689176094421	437.472020899576	561.608420381971	1136.577266276628	320.468480751471	626.819108638420	1215.254456459550	241.181583162446	577.755469075111	1143.294957988199	45.907092625782	550.528446181927	1297.530547444280	134.049913437615	594.567268044010	1223.711640871671	54.241027403131	626.934583846049	1422.627294808889	109.139784770963	628.191518425583	733.252569650202	38.328475319324	380.729894365879	804.570900843071	34.324176703188	298.111448846908	888.018464301489	95.494881981238	322.575481740506	1016.019131019090	44.441978032821	290.887090854614	1089.508627680016	1094.146779896306	116.343946269106	1333.658479933456	1097.828453218390	187.550987407801	848.996918637115	1137.384147513915	719.053134564189	807.839491204604	879.779494150632	748.749770295499	
73	13.467714285714	808.235410138389	990.649838389325	431.836590477562	1009.695333373447	1415.084143216184	255.326070826025	1099.880281483377	1341.112295146694	421.777628639365	1013.324240768034	1428.193638346269	588.484179294216	1012.597993272927	1478.324698127181	406.410413079429	1030.992224651006	929.268933983688	560.469315908680	1029.562807453614	956.681528128730	282.058461837445	1107.622334783232	756.292811634265	537.566758801828	1060.160371723179	636.425952611712	610.649259146770	1149.275157191927	599.740485767026	530.925488699092	1181.696128875968	522.400518326641	547.808764131295	1033.141012459501	729.591787345003	311.540759083424	917.128509205424	635.249295194657	245.680653862019	973.339104564130	541.336555633063	311.810544819334	957.845855501177	474.431121048507	320.924364955468	925.580323576770	408.903732357716	312.070838257507	825.561592275023	303.412036631223	260.739305886198	863.191976004311	188.917325764388	335.480921997290	1175.507639972668	433.412473759216	561.288013225187	1132.737287107522	316.442571931385	625.108007543963	1211.009559731081	236.901415469849	576.274106067500	1137.071627774259	43.875733671649	547.469064413758	1292.001475661380	128.949508500533	592.691250434135	1216.842735809855	50.825434980843	624.550565593488	1416.373952687103	101.979720605563	627.196657936376	725.286889627131	38.488279623552	380.636175216447	796.668198365034	34.402703291329	298.127940466949	880.336573723290	95.376440105110	322.619543540257	1008.240624867028	43.604969859673	290.831779177963	1090.390979473639	1092.764388652154	118.083807242381	1333.529797572419	1105.065576302612	190.539505644180	847.838066267445	1138.446098700739	720.922378047798	805.575575112076	880.886248410588	749.502610552545	
74	13.479071428571	810.641326761598	988.895636121330	434.302735156248	1009.960529859225	1413.709371239808	256.872569307864	1100.867494474487	1340.308235514974	423.094588663417	1014.344603460638	1427.271666048239	589.957620096456	1013.248135006779	1477.136104239309	407.871257538748	1033.885336321140	927.846122497731	562.237838920451	1031.591686889596	955.315993002881	283.514991030697	1109.980408785926	753.969682887315	539.513780778678	1059.985599350069	633.490868396890	610.563722898753	1149.916800853953	597.211580489335	532.002991676696	1180.273856732274	518.923874066422	547.803998881711	1034.456041782717	728.002026595429	312.676625689273	917.440729178638	634.204817436062	247.534180276238	973.705918296294	539.706466533637	312.958350824982	957.819397216413	472.177812734247	322.015106832183	924.063253271248	407.075957835604	313.203536429354	821.741751520487	303.711028222373	261.792835412170	857.312020362587	188.186892926213	335.829012791809	1173.471864761909	429.364774704070	560.857497508503	1128.538684604607	312.645803369243	623.362650580390	1205.874225960656	232.436518965090	574.674122397584	1128.665125712748	42.398759679489	544.491917823665	1284.952346539546	123.287180187805	590.611988996420	1207.943304165883	47.452509030104	622.167708332681	1408.484655821172	93.256774073791	625.797886135299	717.323069602715	38.847277033299	380.508937021754	788.794136563336	34.557173360388	298.135872768003	872.733087893663	95.314377254625	322.623744821099	1000.491034645111	42.757795416370	290.756532369826	1090.783661404311	1091.067473722999	120.012928365459	1332.845462307667	1110.905469969769	193.451190534855	847.320411182638	1139.136227011392	722.797210796267	804.618890848174	881.439792212437	750.245355714447	
75	13.490428571429	813.068720955083	987.335305029584	437.016230320683	1010.342691607405	1412.401709631604	258.498688392987	1101.966390152996	1339.642328695158	424.534982364386	1015.458110594660	1426.483768956542	591.536491701709	1013.965602264961	1476.091207820552	409.434540478059	1036.862136123641	926.637119374268	564.189913950374	1033.625398783697	954.005993332549	285.200830892755	1112.602032630073	752.014671404748	541.583558051892	1060.075051664729	630.907028722774	610.490562089430	1150.986392338210	595.103843093540	533.229822072710	1179.307772661454	515.626702529980	547.839289017709	1036.024179805056	726.542455387972	313.896404137758	918.095315210457	633.150061616322	249.604146567759	974.685704718359	538.086892999581	314.144201918795	958.495839740948	469.827404392396	323.101185898081	923.049728417935	405.196730172287	314.387011473557	818.258902814031	304.194162828439	262.968087907901	851.655176669863	187.575586444560	336.161596103323	1171.607680759844	425.513567442618	560.447002763360	1124.280176885750	309.209832553983	621.806715370305	1200.261063075817	228.040940955734	573.124087499553	1118.870869304323	41.440498772272	541.831141303122	1276.991059570820	117.495251434082	588.488167426768	1197.833385415030	44.320143234998	619.984003133928	1399.656635000720	83.754213038284	624.114184849769	709.379861225452	39.531090232204	380.341747764788	780.959246976759	34.840849802448	298.128291623134	865.250454557137	95.327013902438	322.559784355638	992.775780942652	41.923890697359	290.658987399959	1090.655710831808	1089.099405059320	122.134992773497	1331.681932371667	1115.305875844171	196.287012437155	847.513469320174	1139.424230274972	724.664474898098	804.972401219232	881.441358818438	751.001823887830	
